<?xml version="1.0"?>
<svg xmlns="http://www.w3.org/2000/svg" id="_x33_0" enable-background="new 0 0 64 64" height="512px" viewBox="0 0 64 64" width="512px"><g><g><path d="m25 47c0-1.103-.897-2-2-2h-2c-1.103 0-2 .897-2 2-1.103 0-2 .897-2 2v2c0 1.103.897 2 2 2 0 1.103.897 2 2 2h2c1.103 0 2-.897 2-2 1.103 0 2-.897 2-2v-2c0-1.103-.897-2-2-2zm0 4h-2v2h-2v-2h-2v-2h2v-2h2v2l2-.001z" data-original="#000000" class="active-path" data-old_color="#000000" fill="#FFFFFF"/><path d="m29 53h2v2h-2z" data-original="#000000" class="active-path" data-old_color="#000000" fill="#FFFFFF"/><path d="m33 53h2v2h-2z" data-original="#000000" class="active-path" data-old_color="#000000" fill="#FFFFFF"/><path d="m39 53h2v2h-2z" data-original="#000000" class="active-path" data-old_color="#000000" fill="#FFFFFF"/><path d="m43 53h2v2h-2z" data-original="#000000" class="active-path" data-old_color="#000000" fill="#FFFFFF"/><circle cx="42" cy="46" r="1" data-original="#000000" class="active-path" data-old_color="#000000" fill="#FFFFFF"/><circle cx="42" cy="50" r="1" data-original="#000000" class="active-path" data-old_color="#000000" fill="#FFFFFF"/><circle cx="40" cy="48" r="1" data-original="#000000" class="active-path" data-old_color="#000000" fill="#FFFFFF"/><circle cx="44" cy="48" r="1" data-original="#000000" class="active-path" data-old_color="#000000" fill="#FFFFFF"/><circle cx="14" cy="18" r="1" data-original="#000000" class="active-path" data-old_color="#000000" fill="#FFFFFF"/><circle cx="20" cy="18" r="1" data-original="#000000" class="active-path" data-old_color="#000000" fill="#FFFFFF"/><path d="m14.895 20.553-1.789.895.105.211c.722 1.444 2.174 2.341 3.789 2.341s3.067-.897 3.789-2.342l.105-.211-1.789-.895-.105.212c-.381.762-1.147 1.236-2 1.236s-1.619-.474-2-1.236z" data-original="#000000" class="active-path" data-old_color="#000000" fill="#FFFFFF"/><circle cx="44" cy="18" r="1" data-original="#000000" class="active-path" data-old_color="#000000" fill="#FFFFFF"/><circle cx="50" cy="18" r="1" data-original="#000000" class="active-path" data-old_color="#000000" fill="#FFFFFF"/><path d="m44.895 20.553-1.789.895.105.211c.722 1.444 2.174 2.341 3.789 2.341s3.067-.897 3.789-2.342l.105-.211-1.789-.895-.105.212c-.381.762-1.147 1.236-2 1.236s-1.619-.474-2-1.236z" data-original="#000000" class="active-path" data-old_color="#000000" fill="#FFFFFF"/><path d="m61.976 33.716c-1.438-2.875-4.187-4.833-7.366-5.265.08-.144.15-.293.206-.45h.184c2.206 0 4-1.794 4-4v-5-2c0-.925-.329-1.767-.858-2.445l.29-1.162c.377-1.508.568-3.059.568-4.611 0-1.248-.124-2.502-.369-3.728l-.329-1.644c-.279-1.397-1.516-2.411-2.942-2.411h-11.346c-4.971 0-9.014 4.043-9.014 9.014 0 .735.09 1.47.269 2.186l.589 2.355c-.529.678-.858 1.52-.858 2.445v2c0 2.206 1.794 4 4 4h.589c.628 1.544 1.724 2.846 3.112 3.735l-.45 1.351-2.755.345c-3.225.403-6.018 2.378-7.471 5.285-.009.018-.015.038-.024.056-.009-.018-.015-.038-.024-.056-1.438-2.875-4.187-4.833-7.366-5.265.08-.144.15-.293.206-.45h.183c2.206 0 4-1.794 4-4v-5-2c0-.925-.329-1.767-.858-2.445l.41-1.638c.297-1.192.448-2.418.448-3.644 0-1.617-.259-3.215-.771-4.749l-.597-1.791-3 1-.911-2.734h-9.707c-4.971 0-9.014 4.043-9.014 9.014 0 .735.09 1.47.269 2.186l.589 2.355c-.529.678-.858 1.52-.858 2.445v2c0 2.206 1.794 4 4 4h.589c.628 1.544 1.724 2.846 3.112 3.735l-.45 1.351-2.755.345c-3.225.402-6.018 2.378-7.471 5.285-.671 1.34-1.025 2.84-1.025 4.338v24.946h18.333c1.983 0 3.877-.947 5.066-2.533.69-.919 1.787-1.467 2.934-1.467h9.333c1.148 0 2.245.548 2.933 1.466 1.19 1.587 3.084 2.534 5.068 2.534h18.333v-24.946c0-1.498-.354-2.998-1.024-4.338zm-9.976-7.716c.551 0 1 .449 1 1s-.449 1-1 1h-2c-.551 0-1-.449-1-1s.449-1 1-1zm3 0h-.184c-.223-.626-.64-1.157-1.189-1.514.318-.467.579-.966.79-1.486h.583c.732 0 1.409-.212 2-.556v1.556c0 1.103-.897 2-2 2zm-9.447-17.895-.633.317c-1.139.569-1.856 1.693-1.91 2.956l-1.246.622c-.516.258-.964.603-1.351 1h-.942c.81-3.535 3.897-6 7.529-6s6.719 2.465 7.529 6h-.529-7.528c-.811 0-1.472-.661-1.472-1.472 0-.562.312-1.066.814-1.317l.633-.316zm9.447 12.895h-.069c.041-.33.069-.662.069-1v-5c1.103 0 2 .897 2 2v2c0 1.103-.897 2-2 2zm-10.986-18h11.346c.475 0 .888.338.981.804l.329 1.643c.219 1.097.33 2.219.33 3.336 0 1.337-.162 2.672-.475 3.972l-.031-.139c-.996-4.484-4.9-7.616-9.494-7.616s-8.498 3.132-9.495 7.617l-.033.149-.263-1.051c-.139-.557-.209-1.13-.209-1.701 0-3.868 3.146-7.014 7.014-7.014zm-5.014 18c-1.103 0-2-.897-2-2v-2c0-1.103.897-2 2-2h.224c-.143.469-.224.963-.224 1.472v3.528c0 .339.028.672.069 1zm2-1v-3.528c0-1.144.635-2.172 1.657-2.683l.874-.436c.614.985 1.698 1.647 2.941 1.647h6.528v5c0 1.495-.547 2.898-1.537 4h-1.463c-1.297 0-2.394.832-2.812 1.987-.063.002-.125.013-.188.013-3.309 0-6-2.691-6-6zm6 8c.06 0 .12-.012.18-.013.391 1.113 1.414 1.921 2.641 1.995-.409 1.171-1.512 2.018-2.821 2.018-1.604 0-2.917-1.265-2.996-2.849l.516-1.549c.782.255 1.614.398 2.48.398zm-31.779 4.635-2.607 1.043-1.159-3.477 1.184-.148zm5.768-21.264c-.056-1.26-.772-2.381-1.909-2.948l-.633-.317-.895 1.789.634.317c.502.25.814.754.814 1.316 0 .811-.661 1.472-1.472 1.472h-7.523-.534c.81-3.535 3.897-6 7.529-6s6.719 2.465 7.529 6h-.942c-.386-.397-.833-.741-1.348-.998zm1.011 14.629c.551 0 1 .449 1 1s-.449 1-1 1h-2c-.551 0-1-.449-1-1s.449-1 1-1zm-.639 4.053 1.184.148-1.159 3.477-2.607-1.043zm3.639-4.053h-.184c-.223-.626-.64-1.157-1.189-1.514.318-.467.579-.966.79-1.486h.583c.732 0 1.409-.212 2-.556v1.556c0 1.103-.897 2-2 2zm0-5h-.069c.041-.33.069-.662.069-1v-3.528c0-.509-.081-1.003-.224-1.472h.224c1.103 0 2 .897 2 2v2c0 1.103-.897 2-2 2zm-10.986-18h8.266l1.088 3.265 3-1c.419 1.297.632 2.645.632 4.009 0 1.063-.131 2.125-.389 3.157l-.084.334-.033-.149c-.996-4.484-4.9-7.616-9.494-7.616s-8.498 3.132-9.495 7.617l-.033.149-.263-1.051c-.139-.557-.209-1.13-.209-1.701 0-3.868 3.146-7.014 7.014-7.014zm-5.014 18c-1.103 0-2-.897-2-2v-2c0-1.103.897-2 2-2v5c0 .339.028.672.069 1zm2-1v-5h6.528c1.245 0 2.33-.664 2.943-1.651l.871.44c1.023.511 1.658 1.539 1.658 2.683v3.528c0 1.495-.547 2.898-1.537 4h-1.463c-1.297 0-2.394.832-2.812 1.987-.063.002-.125.013-.188.013-3.309 0-6-2.691-6-6zm6 8c.06 0 .12-.012.18-.013.28.796.875 1.443 1.646 1.773l-1.826 1.826-2.856-2.856.376-1.128c.782.255 1.614.398 2.48.398zm-14 10.054c0-1.189.281-2.38.813-3.443 1.106-2.213 3.196-3.734 5.624-4.138l1.95 5.85 5.613-2.246 5.613 2.245 1.95-5.85c2.428.403 4.517 1.924 5.624 4.138.532 1.064.813 2.254.813 3.444v2.946h-4v-1c0-1.654-1.346-3-3-3h-4c-1.654 0-3 1.346-3 3l-.001 1.685c-2.36 1.127-3.999 3.53-3.999 6.315v8.667c0 1.677.66 3.199 1.727 4.333h-11.727zm28 8.946h2v2h-2zm2-2h-2v-2h2zm-8-4h-5c-.341 0-.673.033-1 .08v-1.08c0-.552.449-1 1-1h4c.551 0 1 .448 1 1zm16.2 18.266c-1.065-1.419-2.76-2.266-4.533-2.266h-9.333c-1.774 0-3.469.847-4.534 2.267-.814 1.085-2.11 1.733-3.467 1.733-2.389 0-4.333-1.943-4.333-4.333v-8.667c0-2.757 2.243-5 5-5h9v8h6v-8h9c2.757 0 5 2.243 5 5v8.667c0 2.39-1.944 4.333-4.333 4.333-1.357 0-2.653-.648-3.467-1.734zm3.8-18.186c-.328-.047-.66-.08-1-.08h-5v-1c0-.552.449-1 1-1h4c.551 0 1 .448 1 1zm16 19.92h-11.727c1.067-1.134 1.727-2.656 1.727-4.333v-8.667c0-2.785-1.639-5.188-4-6.315v-1.685c0-1.654-1.346-3-3-3h-4c-1.654 0-3 1.346-3 3v1h-4v-2.946c0-1.189.281-2.38.813-3.443 1.153-2.307 3.371-3.875 5.93-4.195l2.393-.299c.51 2.218 2.492 3.883 4.864 3.883s4.354-1.665 4.864-3.884l2.393.299c2.56.32 4.777 1.888 5.93 4.195.532 1.064.813 2.254.813 3.444z" data-original="#000000" class="active-path" data-old_color="#000000" fill="#FFFFFF"/></g></g> </svg>
